USFL
nRows=237
nColumns=2
inDegrees=yes
endheader
time	tib_ant_r	
3.45968	 73.112613	
3.49294	 73.099322	
3.52621	 73.082963	
3.55948	 73.076009	
3.59274	 73.083507	
3.62601	 73.075865	
3.65927	 73.082510	
3.69254	 73.084988	
3.72581	 73.075836	
3.75907	 73.075678	
3.79234	 73.074283	
3.8256	 73.080488	
3.85887	 73.077111	
3.89214	 73.078110	
3.9254	 73.074115	
3.95867	 73.079517	
3.99194	 73.092929	
4.0252	 73.106049	
4.05847	 73.103117	
4.09173	 73.101902	
4.125	 73.100102	
4.15827	 73.099164	
4.19153	 73.134029	
4.2248	 73.123508	
4.25806	 73.106335	
4.29133	 73.110349	
4.3246	 73.107329	
4.35786	 73.116503	
4.39113	 73.113818	
4.4244	 73.098199	
4.45766	 73.103341	
4.49093	 73.112983	
4.52419	 73.119546	
4.55746	 73.120258	
4.59073	 73.120522	
4.62399	 73.135844	
4.65726	 73.130519	
4.69052	 73.125698	
4.72379	 73.132297	
4.75706	 73.135323	
4.79032	 73.130814	
4.82359	 73.127485	
4.85685	 73.125649	
4.89012	 73.135616	
4.92339	 73.134256	
4.95665	 73.126076	
4.98992	 73.115929	
5.02319	 73.113636	
5.05645	 73.112015	
5.08972	 73.118252	
5.12298	 73.108438	
5.15625	 73.104983	
5.18952	 73.105515	
5.22278	 73.102297	
5.25605	 73.106821	
5.28931	 73.094832	
5.32258	 73.092349	
5.35585	 73.124471	
5.38911	 73.126666	
5.42238	 73.087141	
5.45565	 72.935040	
5.48891	 72.799070	
5.52218	 72.785957	
5.55544	 72.717272	
5.58871	 72.821172	
5.62198	 73.123572	
5.65524	 73.247602	
5.68851	 56.346758	
5.72177	 55.998922	
5.75504	 55.818080	
5.78831	 55.315411	
5.82157	 55.036528	
5.85484	 54.825598	
5.8881	 54.573620	
5.92137	 54.733130	
5.95464	 54.882211	
5.9879	 54.744588	
6.02117	 54.929587	
6.05444	 54.654304	
6.0877	 54.670341	
6.12097	 54.553569	
6.15423	 54.503052	
6.1875	 54.203254	
6.22077	 54.056186	
6.25403	 53.905967	
6.2873	 53.805123	
6.32056	 53.881725	
6.35383	 49.678834	
6.3871	 49.563848	
6.42036	 49.401764	
6.45363	 49.247559	
6.4869	 49.217628	
6.52016	 48.993517	
6.55343	 48.925765	
6.58669	 48.850265	
6.61996	 48.627946	
6.65323	 48.632212	
6.68649	 48.661471	
6.71976	 48.486927	
6.75302	 48.470774	
6.78629	 48.466096	
6.81956	 48.434490	
6.85282	 48.449162	
6.88609	 48.422749	
6.91935	 48.339975	
6.95262	 48.316059	
6.98589	 48.230776	
7.01915	 48.159913	
7.05242	 48.055245	
7.08569	 47.990436	
7.11895	 47.989429	
7.15222	 47.969009	
7.18548	 47.930726	
7.21875	 47.929229	
7.25202	 47.931850	
7.28528	 47.928394	
7.31855	 47.954270	
7.35181	 47.971399	
7.38508	 48.035870	
7.41835	 48.041209	
7.45161	 48.069809	
7.48488	 48.074502	
7.51815	 48.123383	
7.55141	 48.139608	
7.58468	 48.139203	
7.61794	 48.128494	
7.65121	 48.065810	
7.68448	 48.043683	
7.71774	 48.025069	
7.75101	 48.005121	
7.78427	 47.985103	
7.81754	 47.999131	
7.85081	 48.005413	
7.88407	 48.035198	
7.91734	 48.056855	
7.9506	 48.071262	
7.98387	 48.134112	
8.01714	 48.153451	
8.0504	 48.149178	
8.08367	 48.109088	
8.11694	 48.067777	
8.1502	 48.025690	
8.18347	 48.009163	
8.21673	 48.010308	
8.25	 48.014561	
8.28327	 48.035591	
8.31653	 48.091370	
8.3498	 48.054209	
8.38306	 48.042636	
8.41633	 48.083516	
8.4496	 48.086126	
8.48286	 48.082078	
8.51613	 48.093122	
8.5494	 48.147487	
8.58266	 48.206482	
8.61593	 48.156522	
8.64919	 48.083990	
8.68246	 48.046857	
8.71573	 47.966961	
8.74899	 47.925031	
8.78226	 47.921637	
8.81552	 47.895822	
8.84879	 47.830046	
8.88206	 47.769984	
8.91532	 47.772233	
8.94859	 47.755865	
8.98185	 47.751236	
9.01512	 47.750575	
9.04839	 47.742009	
9.08165	 47.735592	
9.11492	 47.717583	
9.14819	 47.733290	
9.18145	 47.734306	
9.21472	 47.710383	
9.24798	 47.687597	
9.28125	 47.668175	
9.31452	 47.689217	
9.34778	 47.716751	
9.38105	 47.742804	
9.41431	 47.741261	
9.44758	 47.804218	
9.48085	 47.813057	
9.51411	 47.808218	
9.54738	 47.901094	
9.58065	 47.928406	
9.61391	 48.028943	
9.64718	 48.069491	
9.68044	 48.068707	
9.71371	 48.138858	
9.74698	 48.163981	
9.78024	 48.203199	
9.81351	 48.221182	
9.84677	 48.209218	
9.88004	 48.172188	
9.91331	 48.238283	
9.94657	 48.273745	
9.97984	 48.294951	
10.0131	 48.345513	
10.0464	 48.165174	
10.0796	 48.239590	
10.1129	 48.021626	
10.1462	 47.550570	
10.1794	 47.276429	
10.2127	 46.999553	
10.246	 46.711376	
10.2792	 46.566568	
10.3125	 57.129975	
10.3458	 57.163511	
10.379	 57.346592	
10.4123	 57.398462	
10.4456	 57.557306	
10.4788	 57.746716	
10.5121	 57.717626	
10.5454	 57.799117	
10.5786	 57.854412	
10.6119	 57.819612	
10.6452	 57.827158	
10.6784	 57.895090	
10.7117	 57.927723	
10.745	 57.896547	
10.7782	 57.839259	
10.8115	 57.921855	
10.8448	 57.956323	
10.878	 57.955410	
10.9113	 58.003986	
10.9446	 58.030083	
10.9778	 58.024944	
11.0111	 58.136256	
11.0444	 58.098176	
11.0776	 58.180011	
11.1109	 58.242062	
11.1442	 58.224881	
11.1774	 58.313052	
11.2107	 58.317597	
11.244	 58.304066	
11.2772	 58.372571	
11.3105	 58.381393	
